<svg id="visual" viewBox="0 0 3840 2160" width="3840" height="2160" xmlns="http://www.w3.org/2000/svg" xmlns:xlink="http://www.w3.org/1999/xlink" version="1.1"><rect x="0" y="0" width="3840" height="2160" fill="#001122"></rect><path d="M0 1574L71.2 1570.8C142.3 1567.7 284.7 1561.3 426.8 1552.7C569 1544 711 1533 853.2 1549.8C995.3 1566.7 1137.7 1611.3 1280 1604.3C1422.3 1597.3 1564.7 1538.7 1706.8 1531.8C1849 1525 1991 1570 2133.2 1568.7C2275.3 1567.3 2417.7 1519.7 2560 1499.7C2702.3 1479.7 2844.7 1487.3 2986.8 1485C3129 1482.7 3271 1470.3 3413.2 1472.3C3555.3 1474.3 3697.7 1490.7 3768.8 1498.8L3840 1507L3840 2161L3768.8 2161C3697.7 2161 3555.3 2161 3413.2 2161C3271 2161 3129 2161 2986.8 2161C2844.7 2161 2702.3 2161 2560 2161C2417.7 2161 2275.3 2161 2133.2 2161C1991 2161 1849 2161 1706.8 2161C1564.7 2161 1422.3 2161 1280 2161C1137.7 2161 995.3 2161 853.2 2161C711 2161 569 2161 426.8 2161C284.7 2161 142.3 2161 71.2 2161L0 2161Z" fill="#4facf7"></path><path d="M0 1812L71.2 1805.7C142.3 1799.3 284.7 1786.7 426.8 1789.5C569 1792.3 711 1810.7 853.2 1803.7C995.3 1796.7 1137.7 1764.3 1280 1759C1422.3 1753.7 1564.7 1775.3 1706.8 1775.2C1849 1775 1991 1753 2133.2 1753.3C2275.3 1753.7 2417.7 1776.3 2560 1769.7C2702.3 1763 2844.7 1727 2986.8 1694.7C3129 1662.3 3271 1633.7 3413.2 1648.2C3555.3 1662.7 3697.7 1720.3 3768.8 1749.2L3840 1778L3840 2161L3768.8 2161C3697.7 2161 3555.3 2161 3413.2 2161C3271 2161 3129 2161 2986.8 2161C2844.7 2161 2702.3 2161 2560 2161C2417.7 2161 2275.3 2161 2133.2 2161C1991 2161 1849 2161 1706.8 2161C1564.7 2161 1422.3 2161 1280 2161C1137.7 2161 995.3 2161 853.2 2161C711 2161 569 2161 426.8 2161C284.7 2161 142.3 2161 71.2 2161L0 2161Z" fill="#1e97fd"></path><path d="M0 1848L71.2 1860C142.3 1872 284.7 1896 426.8 1888.3C569 1880.7 711 1841.3 853.2 1816.3C995.3 1791.3 1137.7 1780.7 1280 1803.7C1422.3 1826.7 1564.7 1883.3 1706.8 1886C1849 1888.7 1991 1837.3 2133.2 1824.7C2275.3 1812 2417.7 1838 2560 1843.7C2702.3 1849.3 2844.7 1834.7 2986.8 1822.7C3129 1810.7 3271 1801.3 3413.2 1819C3555.3 1836.7 3697.7 1881.3 3768.8 1903.7L3840 1926L3840 2161L3768.8 2161C3697.7 2161 3555.3 2161 3413.2 2161C3271 2161 3129 2161 2986.8 2161C2844.7 2161 2702.3 2161 2560 2161C2417.7 2161 2275.3 2161 2133.2 2161C1991 2161 1849 2161 1706.8 2161C1564.7 2161 1422.3 2161 1280 2161C1137.7 2161 995.3 2161 853.2 2161C711 2161 569 2161 426.8 2161C284.7 2161 142.3 2161 71.2 2161L0 2161Z" fill="#0080ff"></path><path d="M0 1946L71.2 1954.8C142.3 1963.7 284.7 1981.3 426.8 2000.8C569 2020.3 711 2041.7 853.2 2050C995.3 2058.3 1137.7 2053.7 1280 2054.7C1422.3 2055.7 1564.7 2062.3 1706.8 2039.7C1849 2017 1991 1965 2133.2 1945.2C2275.3 1925.3 2417.7 1937.7 2560 1963.3C2702.3 1989 2844.7 2028 2986.8 2026.2C3129 2024.3 3271 1981.7 3413.2 1979.5C3555.3 1977.3 3697.7 2015.7 3768.8 2034.8L3840 2054L3840 2161L3768.8 2161C3697.7 2161 3555.3 2161 3413.2 2161C3271 2161 3129 2161 2986.8 2161C2844.7 2161 2702.3 2161 2560 2161C2417.7 2161 2275.3 2161 2133.2 2161C1991 2161 1849 2161 1706.8 2161C1564.7 2161 1422.3 2161 1280 2161C1137.7 2161 995.3 2161 853.2 2161C711 2161 569 2161 426.8 2161C284.7 2161 142.3 2161 71.2 2161L0 2161Z" fill="#0066ff"></path></svg>